<svg xmlns="http://www.w3.org/2000/svg" width="18.038" height="20.079" viewBox="0 0 18.038 20.079">
  <g id="COCO_Line_Bag" data-name="COCO/Line/Bag" transform="translate(-3.237 -2.249)">
    <path id="Vector" d="M.395,8.1A4.845,4.845,0,0,1,4.213,4.779a21.38,21.38,0,0,1,8.086,0A4.845,4.845,0,0,1,16.118,8.1l.079.277a8.21,8.21,0,0,1-.358,5.512l-.1.224a5.9,5.9,0,0,1-4.612,3.4l-.773.115a14.335,14.335,0,0,1-4.2,0l-.773-.115a5.9,5.9,0,0,1-4.612-3.4l-.1-.224A8.21,8.21,0,0,1,.316,8.381Z" transform="translate(4 3.794)" fill="none" stroke="#4c8613" stroke-linejoin="round" stroke-width="1.5"/>
    <path id="Vector-2" data-name="Vector" d="M11.392,5.187a4.137,4.137,0,0,0,.256-2.557A3.364,3.364,0,0,0,8.894.077L8.773.056a3.926,3.926,0,0,0-1.32,0L7.331.077A3.364,3.364,0,0,0,4.578,2.63a4.137,4.137,0,0,0,.256,2.557" transform="translate(4.144 3)" fill="none" stroke="#4c8613" stroke-linejoin="round" stroke-width="1.5"/>
  </g>
</svg>
